{
	"asset":{
		"generator":"Khronos glTF Blender I/O v4.0.44",
		"version":"2.0"
	},
	"extensionsUsed":[
		"KHR_materials_specular",
		"KHR_materials_ior"
	],
	"scene":0,
	"scenes":[
		{
			"name":"Scene",
			"nodes":[
				0,
				1,
				2,
				3,
				4,
				5,
				6,
				7,
				8,
				9
			]
		}
	],
	"nodes":[
		{
			"mesh":0,
			"name":"Object005",
			"rotation":[
				0.7071068286895752,
				0,
				0,
				0.7071068286895752
			],
			"scale":[
				0.0010000000474974513,
				0.0010000000474974513,
				0.0010000000474974513
			],
			"translation":[
				0.03196132928133011,
				-0.0662090927362442,
				-0.18773116171360016
			]
		},
		{
			"mesh":1,
			"name":"Line006",
			"rotation":[
				0.7071068286895752,
				0,
				0,
				0.7071068286895752
			],
			"scale":[
				0.0010000000474974513,
				0.0010000000474974513,
				0.0010000000474974513
			],
			"translation":[
				-0.030552826821804047,
				0.09058596938848495,
				0.003776298835873604
			]
		},
		{
			"mesh":2,
			"name":"Line005",
			"rotation":[
				0.7071068286895752,
				0,
				0,
				0.7071068286895752
			],
			"scale":[
				0.0010000000474974513,
				0.0010000000474974513,
				0.0010000000474974513
			],
			"translation":[
				0.03782346472144127,
				0.025063997134566307,
				0.07522135972976685
			]
		},
		{
			"mesh":3,
			"name":"Line004",
			"rotation":[
				0.7071068286895752,
				0,
				0,
				0.7071068286895752
			],
			"scale":[
				0.0010000000474974513,
				0.0010000000474974513,
				0.0010000000474974513
			],
			"translation":[
				-0.11237145215272903,
				0.06242629513144493,
				0.07522135972976685
			]
		},
		{
			"mesh":4,
			"name":"Bonsai_Ficus_Cylinder001",
			"rotation":[
				0.7071068286895752,
				0,
				0,
				0.7071068286895752
			],
			"scale":[
				0.0010000000474974513,
				0.0010000000474974513,
				0.0010000000474974513
			],
			"translation":[
				0.03196132928133011,
				-0.0662090927362442,
				-0.18773116171360016
			]
		},
		{
			"mesh":5,
			"name":"Object005.001",
			"rotation":[
				0.7071068286895752,
				0,
				0,
				0.7071068286895752
			],
			"scale":[
				0.0010000000474974513,
				0.0010000000474974513,
				0.0010000000474974513
			],
			"translation":[
				0.03196132928133011,
				-0.0662090927362442,
				-0.18773116171360016
			]
		},
		{
			"mesh":6,
			"name":"Line006.001",
			"rotation":[
				0.7071068286895752,
				0,
				0,
				0.7071068286895752
			],
			"scale":[
				0.0010000000474974513,
				0.0010000000474974513,
				0.0010000000474974513
			],
			"translation":[
				-0.030552826821804047,
				0.09058596938848495,
				0.003776298835873604
			]
		},
		{
			"mesh":7,
			"name":"Line005.001",
			"rotation":[
				0.7071068286895752,
				0,
				0,
				0.7071068286895752
			],
			"scale":[
				0.0010000000474974513,
				0.0010000000474974513,
				0.0010000000474974513
			],
			"translation":[
				0.03782346472144127,
				0.025063997134566307,
				0.07522135972976685
			]
		},
		{
			"mesh":8,
			"name":"Line004.001",
			"rotation":[
				0.7071068286895752,
				0,
				0,
				0.7071068286895752
			],
			"scale":[
				0.0010000000474974513,
				0.0010000000474974513,
				0.0010000000474974513
			],
			"translation":[
				-0.11237145215272903,
				0.06242629513144493,
				0.07522135972976685
			]
		},
		{
			"mesh":9,
			"name":"Bonsai_Ficus_Cylinder001.001",
			"rotation":[
				0.7071068286895752,
				0,
				0,
				0.7071068286895752
			],
			"scale":[
				0.0010000000474974513,
				0.0010000000474974513,
				0.0010000000474974513
			],
			"translation":[
				0.03196132928133011,
				-0.0662090927362442,
				-0.18773116171360016
			]
		}
	],
	"materials":[
		{
			"doubleSided":true,
			"extensions":{
				"KHR_materials_specular":{
					"specularTexture":{
						"index":0
					}
				},
				"KHR_materials_ior":{
					"ior":1.4500000476837158
				}
			},
			"name":"cvdfg",
			"pbrMetallicRoughness":{
				"baseColorTexture":{
					"index":1
				},
				"metallicRoughnessTexture":{
					"index":2
				}
			}
		},
		{
			"doubleSided":true,
			"extensions":{
				"KHR_materials_specular":{
					"specularTexture":{
						"index":3
					}
				},
				"KHR_materials_ior":{
					"ior":1.4500000476837158
				}
			},
			"name":"Material #11vcbc",
			"normalTexture":{
				"index":4,
				"scale":0.30000001192092896
			},
			"pbrMetallicRoughness":{
				"baseColorTexture":{
					"index":5
				},
				"metallicRoughnessTexture":{
					"index":6
				}
			}
		},
		{
			"doubleSided":true,
			"extensions":{
				"KHR_materials_specular":{
					"specularTexture":{
						"index":7
					}
				},
				"KHR_materials_ior":{
					"ior":1.4500000476837158
				}
			},
			"name":"Material #92342",
			"normalTexture":{
				"index":8,
				"scale":0.30000001192092896
			},
			"pbrMetallicRoughness":{
				"baseColorTexture":{
					"index":9
				},
				"metallicRoughnessTexture":{
					"index":10
				}
			}
		},
		{
			"doubleSided":true,
			"extensions":{
				"KHR_materials_specular":{
					"specularTexture":{
						"index":11
					}
				},
				"KHR_materials_ior":{
					"ior":1.4500000476837158
				}
			},
			"name":"Material #10vcbds",
			"normalTexture":{
				"index":12,
				"scale":0.30000001192092896
			},
			"pbrMetallicRoughness":{
				"baseColorTexture":{
					"index":13
				},
				"metallicRoughnessTexture":{
					"index":14
				}
			}
		},
		{
			"doubleSided":true,
			"extensions":{
				"KHR_materials_specular":{
					"specularTexture":{
						"index":15
					}
				},
				"KHR_materials_ior":{
					"ior":1.4500000476837158
				}
			},
			"name":"Material #13cvbdf",
			"normalTexture":{
				"index":16,
				"scale":0.30000001192092896
			},
			"pbrMetallicRoughness":{
				"baseColorTexture":{
					"index":17
				},
				"metallicRoughnessTexture":{
					"index":18
				}
			}
		},
		{
			"doubleSided":true,
			"extensions":{
				"KHR_materials_specular":{
					"specularTexture":{
						"index":19
					}
				},
				"KHR_materials_ior":{
					"ior":1.4500000476837158
				}
			},
			"name":"cvdfg.001",
			"pbrMetallicRoughness":{
				"baseColorTexture":{
					"index":20
				},
				"metallicRoughnessTexture":{
					"index":21
				}
			}
		},
		{
			"doubleSided":true,
			"extensions":{
				"KHR_materials_specular":{
					"specularTexture":{
						"index":22
					}
				},
				"KHR_materials_ior":{
					"ior":1.4500000476837158
				}
			},
			"name":"Material #11vcbc.001",
			"normalTexture":{
				"index":23,
				"scale":0.30000001192092896
			},
			"pbrMetallicRoughness":{
				"baseColorTexture":{
					"index":24
				},
				"metallicRoughnessTexture":{
					"index":25
				}
			}
		},
		{
			"doubleSided":true,
			"extensions":{
				"KHR_materials_specular":{
					"specularTexture":{
						"index":26
					}
				},
				"KHR_materials_ior":{
					"ior":1.4500000476837158
				}
			},
			"name":"Material #92342.001",
			"normalTexture":{
				"index":27,
				"scale":0.30000001192092896
			},
			"pbrMetallicRoughness":{
				"baseColorTexture":{
					"index":28
				},
				"metallicRoughnessTexture":{
					"index":29
				}
			}
		},
		{
			"doubleSided":true,
			"extensions":{
				"KHR_materials_specular":{
					"specularTexture":{
						"index":30
					}
				},
				"KHR_materials_ior":{
					"ior":1.4500000476837158
				}
			},
			"name":"Material #10vcbds.001",
			"normalTexture":{
				"index":31,
				"scale":0.30000001192092896
			},
			"pbrMetallicRoughness":{
				"baseColorTexture":{
					"index":32
				},
				"metallicRoughnessTexture":{
					"index":33
				}
			}
		},
		{
			"doubleSided":true,
			"extensions":{
				"KHR_materials_specular":{
					"specularTexture":{
						"index":34
					}
				},
				"KHR_materials_ior":{
					"ior":1.4500000476837158
				}
			},
			"name":"Material #13cvbdf.001",
			"normalTexture":{
				"index":35,
				"scale":0.30000001192092896
			},
			"pbrMetallicRoughness":{
				"baseColorTexture":{
					"index":36
				},
				"metallicRoughnessTexture":{
					"index":37
				}
			}
		}
	],
	"meshes":[
		{
			"name":"\u7f51\u683c",
			"primitives":[
				{
					"attributes":{
						"POSITION":0,
						"NORMAL":1,
						"TEXCOORD_0":2
					},
					"indices":3,
					"material":0
				}
			]
		},
		{
			"name":"\u7f51\u683c.001",
			"primitives":[
				{
					"attributes":{
						"POSITION":4,
						"NORMAL":5,
						"TEXCOORD_0":6
					},
					"indices":7,
					"material":1
				}
			]
		},
		{
			"name":"\u7f51\u683c.002",
			"primitives":[
				{
					"attributes":{
						"POSITION":8,
						"NORMAL":9,
						"TEXCOORD_0":10
					},
					"indices":11,
					"material":2
				}
			]
		},
		{
			"name":"\u7f51\u683c.003",
			"primitives":[
				{
					"attributes":{
						"POSITION":12,
						"NORMAL":13,
						"TEXCOORD_0":14
					},
					"indices":15,
					"material":3
				}
			]
		},
		{
			"name":"\u7f51\u683c.004",
			"primitives":[
				{
					"attributes":{
						"POSITION":16,
						"NORMAL":17,
						"TEXCOORD_0":18
					},
					"indices":19,
					"material":4
				}
			]
		},
		{
			"name":"\u7f51\u683c.005",
			"primitives":[
				{
					"attributes":{
						"POSITION":20,
						"NORMAL":21,
						"TEXCOORD_0":22
					},
					"indices":3,
					"material":5
				}
			]
		},
		{
			"name":"\u7f51\u683c.006",
			"primitives":[
				{
					"attributes":{
						"POSITION":23,
						"NORMAL":24,
						"TEXCOORD_0":25
					},
					"indices":7,
					"material":6
				}
			]
		},
		{
			"name":"\u7f51\u683c.007",
			"primitives":[
				{
					"attributes":{
						"POSITION":26,
						"NORMAL":27,
						"TEXCOORD_0":28
					},
					"indices":11,
					"material":7
				}
			]
		},
		{
			"name":"\u7f51\u683c.008",
			"primitives":[
				{
					"attributes":{
						"POSITION":29,
						"NORMAL":30,
						"TEXCOORD_0":31
					},
					"indices":15,
					"material":8
				}
			]
		},
		{
			"name":"\u7f51\u683c.009",
			"primitives":[
				{
					"attributes":{
						"POSITION":32,
						"NORMAL":33,
						"TEXCOORD_0":34
					},
					"indices":19,
					"material":9
				}
			]
		}
	],
	"textures":[
		{
			"sampler":0,
			"source":0
		},
		{
			"sampler":0,
			"source":1
		},
		{
			"sampler":0,
			"source":2
		},
		{
			"sampler":0,
			"source":3
		},
		{
			"sampler":0,
			"source":4
		},
		{
			"sampler":0,
			"source":5
		},
		{
			"sampler":0,
			"source":6
		},
		{
			"sampler":0,
			"source":7
		},
		{
			"sampler":0,
			"source":8
		},
		{
			"sampler":0,
			"source":9
		},
		{
			"sampler":0,
			"source":10
		},
		{
			"sampler":0,
			"source":11
		},
		{
			"sampler":0,
			"source":12
		},
		{
			"sampler":0,
			"source":13
		},
		{
			"sampler":0,
			"source":14
		},
		{
			"sampler":0,
			"source":15
		},
		{
			"sampler":0,
			"source":16
		},
		{
			"sampler":0,
			"source":17
		},
		{
			"sampler":0,
			"source":18
		},
		{
			"sampler":0,
			"source":0
		},
		{
			"sampler":0,
			"source":1
		},
		{
			"sampler":0,
			"source":2
		},
		{
			"sampler":0,
			"source":3
		},
		{
			"sampler":0,
			"source":4
		},
		{
			"sampler":0,
			"source":5
		},
		{
			"sampler":0,
			"source":6
		},
		{
			"sampler":0,
			"source":7
		},
		{
			"sampler":0,
			"source":8
		},
		{
			"sampler":0,
			"source":9
		},
		{
			"sampler":0,
			"source":10
		},
		{
			"sampler":0,
			"source":11
		},
		{
			"sampler":0,
			"source":12
		},
		{
			"sampler":0,
			"source":13
		},
		{
			"sampler":0,
			"source":14
		},
		{
			"sampler":0,
			"source":15
		},
		{
			"sampler":0,
			"source":16
		},
		{
			"sampler":0,
			"source":17
		},
		{
			"sampler":0,
			"source":18
		}
	],
	"images":[
		{
			"mimeType":"image/png",
			"name":"woodBarkDecidious0184 r",
			"uri":"woodBarkDecidious0184%20r.png"
		},
		{
			"mimeType":"image/jpeg",
			"name":"woodBarkDecidious0184",
			"uri":"woodBarkDecidious0184.jpg"
		},
		{
			"mimeType":"image/png",
			"name":"woodBarkDecidious0184 r",
			"uri":"woodBarkDecidious0184%20r-1.png"
		},
		{
			"mimeType":"image/png",
			"name":"3vase_3_Roughness_1",
			"uri":"3vase_3_Roughness_1.png"
		},
		{
			"mimeType":"image/jpeg",
			"name":"3vase_3_Normal",
			"uri":"3vase_3_Normal.jpg"
		},
		{
			"mimeType":"image/jpeg",
			"name":"3vase_3_BaseColor",
			"uri":"3vase_3_BaseColor.jpg"
		},
		{
			"mimeType":"image/png",
			"name":"3vase_3_Roughness_1",
			"uri":"3vase_3_Roughness_1-1.png"
		},
		{
			"mimeType":"image/png",
			"name":"3vase_1_Roughness",
			"uri":"3vase_1_Roughness.png"
		},
		{
			"mimeType":"image/jpeg",
			"name":"3vase_1_Normal_1",
			"uri":"3vase_1_Normal_1.jpg"
		},
		{
			"mimeType":"image/jpeg",
			"name":"3vase_1_BaseColor",
			"uri":"3vase_1_BaseColor.jpg"
		},
		{
			"mimeType":"image/png",
			"name":"3vase_1_Roughness",
			"uri":"3vase_1_Roughness-1.png"
		},
		{
			"mimeType":"image/png",
			"name":"3vase_2_Roughness",
			"uri":"3vase_2_Roughness.png"
		},
		{
			"mimeType":"image/jpeg",
			"name":"3vase_2_Normal",
			"uri":"3vase_2_Normal.jpg"
		},
		{
			"mimeType":"image/jpeg",
			"name":"3vase_2_BaseColor",
			"uri":"3vase_2_BaseColor.jpg"
		},
		{
			"mimeType":"image/png",
			"name":"3vase_2_Roughness",
			"uri":"3vase_2_Roughness-1.png"
		},
		{
			"mimeType":"image/png",
			"name":"ficus bonsai bark1bn mask",
			"uri":"ficus%20bonsai%20bark1bn%20mask.png"
		},
		{
			"mimeType":"image/jpeg",
			"name":"ficus bonsai bark1bn nrm",
			"uri":"ficus%20bonsai%20bark1bn%20nrm.jpg"
		},
		{
			"mimeType":"image/jpeg",
			"name":"barktexbark1bn",
			"uri":"barktexbark1bn.jpg"
		},
		{
			"mimeType":"image/png",
			"name":"ficus bonsai bark1bn mask",
			"uri":"ficus%20bonsai%20bark1bn%20mask-1.png"
		}
	],
	"accessors":[
		{
			"bufferView":0,
			"componentType":5126,
			"count":48136,
			"max":[
				-30.660850524902344,
				227.80209350585938,
				-140.3072509765625
			],
			"min":[
				-198.12954711914062,
				72.33194732666016,
				-363.13629150390625
			],
			"type":"VEC3"
		},
		{
			"bufferView":1,
			"componentType":5126,
			"count":48136,
			"type":"VEC3"
		},
		{
			"bufferView":2,
			"componentType":5126,
			"count":48136,
			"type":"VEC2"
		},
		{
			"bufferView":3,
			"componentType":5123,
			"count":261594,
			"type":"SCALAR"
		},
		{
			"bufferView":4,
			"componentType":5126,
			"count":8355,
			"max":[
				11.19100284576416,
				30.97117042541504,
				90.64833068847656
			],
			"min":[
				-50.751338958740234,
				-30.971174240112305,
				-47.958736419677734
			],
			"type":"VEC3"
		},
		{
			"bufferView":5,
			"componentType":5126,
			"count":8355,
			"type":"VEC3"
		},
		{
			"bufferView":6,
			"componentType":5126,
			"count":8355,
			"type":"VEC2"
		},
		{
			"bufferView":7,
			"componentType":5123,
			"count":48240,
			"type":"SCALAR"
		},
		{
			"bufferView":8,
			"componentType":5126,
			"count":7623,
			"max":[
				79.63948059082031,
				50.12567901611328,
				25.101232528686523
			],
			"min":[
				-20.611881256103516,
				-50.12568664550781,
				-31.67562484741211
			],
			"type":"VEC3"
		},
		{
			"bufferView":9,
			"componentType":5126,
			"count":7623,
			"type":"VEC3"
		},
		{
			"bufferView":10,
			"componentType":5126,
			"count":7623,
			"type":"VEC2"
		},
		{
			"bufferView":11,
			"componentType":5123,
			"count":43560,
			"type":"SCALAR"
		},
		{
			"bufferView":12,
			"componentType":5126,
			"count":9331,
			"max":[
				63.19771194458008,
				41.013362884521484,
				62.463050842285156
			],
			"min":[
				-18.82901382446289,
				-41.013362884521484,
				-35.07706069946289
			],
			"type":"VEC3"
		},
		{
			"bufferView":13,
			"componentType":5126,
			"count":9331,
			"type":"VEC3"
		},
		{
			"bufferView":14,
			"componentType":5126,
			"count":9331,
			"type":"VEC2"
		},
		{
			"bufferView":15,
			"componentType":5123,
			"count":54360,
			"type":"SCALAR"
		},
		{
			"bufferView":16,
			"componentType":5126,
			"count":133939,
			"max":[
				221.7508544921875,
				286.7892150878906,
				-169.93960571289062
			],
			"min":[
				-100.06095123291016,
				125.54019927978516,
				-341.93963623046875
			],
			"type":"VEC3"
		},
		{
			"bufferView":17,
			"componentType":5126,
			"count":133939,
			"type":"VEC3"
		},
		{
			"bufferView":18,
			"componentType":5126,
			"count":133939,
			"type":"VEC2"
		},
		{
			"bufferView":19,
			"componentType":5125,
			"count":750708,
			"type":"SCALAR"
		},
		{
			"bufferView":20,
			"componentType":5126,
			"count":48136,
			"max":[
				-30.660850524902344,
				227.80209350585938,
				-140.3072509765625
			],
			"min":[
				-198.12954711914062,
				72.33194732666016,
				-363.13629150390625
			],
			"type":"VEC3"
		},
		{
			"bufferView":21,
			"componentType":5126,
			"count":48136,
			"type":"VEC3"
		},
		{
			"bufferView":22,
			"componentType":5126,
			"count":48136,
			"type":"VEC2"
		},
		{
			"bufferView":23,
			"componentType":5126,
			"count":8355,
			"max":[
				11.19100284576416,
				30.97117042541504,
				90.64833068847656
			],
			"min":[
				-50.751338958740234,
				-30.971174240112305,
				-47.958736419677734
			],
			"type":"VEC3"
		},
		{
			"bufferView":24,
			"componentType":5126,
			"count":8355,
			"type":"VEC3"
		},
		{
			"bufferView":25,
			"componentType":5126,
			"count":8355,
			"type":"VEC2"
		},
		{
			"bufferView":26,
			"componentType":5126,
			"count":7623,
			"max":[
				79.63948059082031,
				50.12567901611328,
				25.101232528686523
			],
			"min":[
				-20.611881256103516,
				-50.12568664550781,
				-31.67562484741211
			],
			"type":"VEC3"
		},
		{
			"bufferView":27,
			"componentType":5126,
			"count":7623,
			"type":"VEC3"
		},
		{
			"bufferView":28,
			"componentType":5126,
			"count":7623,
			"type":"VEC2"
		},
		{
			"bufferView":29,
			"componentType":5126,
			"count":9331,
			"max":[
				63.19771194458008,
				41.013362884521484,
				62.463050842285156
			],
			"min":[
				-18.82901382446289,
				-41.013362884521484,
				-35.07706069946289
			],
			"type":"VEC3"
		},
		{
			"bufferView":30,
			"componentType":5126,
			"count":9331,
			"type":"VEC3"
		},
		{
			"bufferView":31,
			"componentType":5126,
			"count":9331,
			"type":"VEC2"
		},
		{
			"bufferView":32,
			"componentType":5126,
			"count":133939,
			"max":[
				221.7508544921875,
				286.7892150878906,
				-169.93960571289062
			],
			"min":[
				-100.06095123291016,
				125.54019927978516,
				-341.93963623046875
			],
			"type":"VEC3"
		},
		{
			"bufferView":33,
			"componentType":5126,
			"count":133939,
			"type":"VEC3"
		},
		{
			"bufferView":34,
			"componentType":5126,
			"count":133939,
			"type":"VEC2"
		}
	],
	"bufferViews":[
		{
			"buffer":0,
			"byteLength":577632,
			"byteOffset":0,
			"target":34962
		},
		{
			"buffer":0,
			"byteLength":577632,
			"byteOffset":577632,
			"target":34962
		},
		{
			"buffer":0,
			"byteLength":385088,
			"byteOffset":1155264,
			"target":34962
		},
		{
			"buffer":0,
			"byteLength":523188,
			"byteOffset":1540352,
			"target":34963
		},
		{
			"buffer":0,
			"byteLength":100260,
			"byteOffset":2063540,
			"target":34962
		},
		{
			"buffer":0,
			"byteLength":100260,
			"byteOffset":2163800,
			"target":34962
		},
		{
			"buffer":0,
			"byteLength":66840,
			"byteOffset":2264060,
			"target":34962
		},
		{
			"buffer":0,
			"byteLength":96480,
			"byteOffset":2330900,
			"target":34963
		},
		{
			"buffer":0,
			"byteLength":91476,
			"byteOffset":2427380,
			"target":34962
		},
		{
			"buffer":0,
			"byteLength":91476,
			"byteOffset":2518856,
			"target":34962
		},
		{
			"buffer":0,
			"byteLength":60984,
			"byteOffset":2610332,
			"target":34962
		},
		{
			"buffer":0,
			"byteLength":87120,
			"byteOffset":2671316,
			"target":34963
		},
		{
			"buffer":0,
			"byteLength":111972,
			"byteOffset":2758436,
			"target":34962
		},
		{
			"buffer":0,
			"byteLength":111972,
			"byteOffset":2870408,
			"target":34962
		},
		{
			"buffer":0,
			"byteLength":74648,
			"byteOffset":2982380,
			"target":34962
		},
		{
			"buffer":0,
			"byteLength":108720,
			"byteOffset":3057028,
			"target":34963
		},
		{
			"buffer":0,
			"byteLength":1607268,
			"byteOffset":3165748,
			"target":34962
		},
		{
			"buffer":0,
			"byteLength":1607268,
			"byteOffset":4773016,
			"target":34962
		},
		{
			"buffer":0,
			"byteLength":1071512,
			"byteOffset":6380284,
			"target":34962
		},
		{
			"buffer":0,
			"byteLength":3002832,
			"byteOffset":7451796,
			"target":34963
		},
		{
			"buffer":0,
			"byteLength":577632,
			"byteOffset":10454628,
			"target":34962
		},
		{
			"buffer":0,
			"byteLength":577632,
			"byteOffset":11032260,
			"target":34962
		},
		{
			"buffer":0,
			"byteLength":385088,
			"byteOffset":11609892,
			"target":34962
		},
		{
			"buffer":0,
			"byteLength":100260,
			"byteOffset":11994980,
			"target":34962
		},
		{
			"buffer":0,
			"byteLength":100260,
			"byteOffset":12095240,
			"target":34962
		},
		{
			"buffer":0,
			"byteLength":66840,
			"byteOffset":12195500,
			"target":34962
		},
		{
			"buffer":0,
			"byteLength":91476,
			"byteOffset":12262340,
			"target":34962
		},
		{
			"buffer":0,
			"byteLength":91476,
			"byteOffset":12353816,
			"target":34962
		},
		{
			"buffer":0,
			"byteLength":60984,
			"byteOffset":12445292,
			"target":34962
		},
		{
			"buffer":0,
			"byteLength":111972,
			"byteOffset":12506276,
			"target":34962
		},
		{
			"buffer":0,
			"byteLength":111972,
			"byteOffset":12618248,
			"target":34962
		},
		{
			"buffer":0,
			"byteLength":74648,
			"byteOffset":12730220,
			"target":34962
		},
		{
			"buffer":0,
			"byteLength":1607268,
			"byteOffset":12804868,
			"target":34962
		},
		{
			"buffer":0,
			"byteLength":1607268,
			"byteOffset":14412136,
			"target":34962
		},
		{
			"buffer":0,
			"byteLength":1071512,
			"byteOffset":16019404,
			"target":34962
		}
	],
	"samplers":[
		{
			"magFilter":9729,
			"minFilter":9987
		}
	],
	"buffers":[
		{
			"byteLength":17090916,
			"uri":"vase.bin"
		}
	]
}
